<?xml version="1.0" encoding="UTF-8"?>
<svg id="Ebene_1" data-name="Ebene 1" xmlns="http://www.w3.org/2000/svg" version="1.1" viewBox="0 0 326 127.6">
  <defs>
    <style>
      .cls-1 {
        fill: #cee6e5;
      }

      .cls-1, .cls-2, .cls-3, .cls-4, .cls-5, .cls-6, .cls-7, .cls-8, .cls-9, .cls-10, .cls-11, .cls-12, .cls-13 {
        stroke-width: 0px;
      }

      .cls-2 {
        fill: #ccecf4;
      }

      .cls-3 {
        fill: #d7ebd5;
      }

      .cls-4 {
        fill: #dbeeed;
      }

      .cls-5 {
        fill: #b6dddb;
      }

      .cls-6 {
        fill: #aed8ab;
      }

      .cls-7 {
        fill: #86c482;
      }

      .cls-8 {
        fill: #9ccdcb;
      }

      .cls-9 {
        fill: #99d9e8;
      }

      .cls-10 {
        fill: #6bb4b0;
      }

      .cls-11 {
        fill: #66c6dd;
      }

      .cls-12 {
        fill: #92ccc9;
      }

      .cls-13 {
        fill: #fff;
      }
    </style>
  </defs>
  <g>
    <path class="cls-13" d="M108,57.2h-1.4V19h1.4v38.3Z"/>
    <path class="cls-13" d="M129.8,38.6h-5.9v18.7h-1.4V19h1.4v18.2h6.3l16.2-18.2h1.9l-17,19.1,18.1,19.2h-1.9l-17.8-18.7Z"/>
    <path class="cls-13" d="M159.7,19l15.7,36.2,15.8-36.2h2.1v38.3h-1.4V21.1l-15.9,36.2h-1.1l-15.8-36v36h-1.4V19h2Z"/>
    <path class="cls-13" d="M207.8,57.2V19h10.1c4.1,0,7.2.8,9.3,2.5,2.2,1.8,3.3,4.5,3.2,7.3,0,2.1-.5,4.1-1.8,5.8-1.2,1.6-3,2.6-5,2.9,2.3.3,4.5,1.4,6,3.1,1.6,1.7,2.4,3.8,2.4,6.1.1,2.9-1,5.7-3.2,7.7-2.1,1.9-5,2.8-8.8,2.8h-12.3ZM209.2,36.9h9.2c3.5,0,6.1-.7,7.9-2s2.7-3.4,2.7-6.2c0-5.4-3.6-8.2-10.8-8.3h-9v16.5ZM209.2,38.3v17.5h11.1c3.2,0,5.8-.8,7.6-2.4,1.9-1.7,2.9-4.1,2.8-6.7,0-2.3-.9-4.5-2.7-6-2-1.7-4.6-2.5-7.2-2.4h-11.6Z"/>
    <g>
      <path class="cls-13" d="M107.7,85.4h-1.2v-13.5h1.2v13.5Z"/>
      <path class="cls-13" d="M112.8,75.3v1.7c.4-.6.9-1.1,1.5-1.4.6-.3,1.2-.5,1.9-.5,1.1,0,1.9.3,2.5.9s.8,1.5.8,2.7v6.6h-1.1v-6.6c0-.9-.2-1.6-.6-2-.4-.4-1-.7-1.8-.7s-1.3.2-1.9.6c-.5.4-.9,1-1.2,1.7v6.9h-1.1v-10h1.1Z"/>
      <path class="cls-13" d="M129,82.8c0-.6-.2-1-.7-1.3s-1.1-.6-2-.8c-.9-.2-1.6-.4-2.1-.6-.5-.2-.9-.5-1.1-.9-.2-.4-.4-.8-.4-1.3,0-.8.3-1.4,1-2,.7-.5,1.5-.8,2.6-.8s2.1.3,2.7.8c.7.6,1,1.3,1,2.2h-1.1c0-.6-.3-1.1-.8-1.5-.5-.4-1.1-.6-1.9-.6s-1.3.2-1.8.5c-.5.3-.7.7-.7,1.3s.2.9.6,1.2c.4.3,1.1.5,2.1.8,1,.2,1.7.5,2.2.7.5.3.9.6,1.1.9.2.4.4.8.4,1.3,0,.8-.3,1.5-1,2s-1.6.8-2.7.8-2.2-.3-2.9-.8c-.7-.6-1.1-1.3-1.1-2.1h1.1c0,.6.3,1.2.8,1.5.5.4,1.2.5,2,.5s1.4-.2,1.9-.5c.5-.3.7-.8.7-1.3Z"/>
      <path class="cls-13" d="M135.1,72.8v2.6h2.1v.9h-2.1v6.7c0,.6.1,1,.3,1.2s.5.4,1,.4.5,0,.9,0v.9c-.2.1-.7.2-1.2.2-.8,0-1.3-.2-1.7-.7s-.5-1.1-.5-2v-6.7h-1.9v-.9h1.9v-2.6h1.1Z"/>
      <path class="cls-13" d="M140,72.4c0-.2,0-.4.2-.5.1-.1.3-.2.6-.2s.4,0,.6.2c.1.1.2.3.2.5s0,.4-.2.5c-.1.1-.3.2-.6.2s-.4,0-.6-.2c-.1-.1-.2-.3-.2-.5ZM141.3,85.4h-1.1v-10h1.1v10Z"/>
      <path class="cls-13" d="M146.8,72.8v2.6h2.1v.9h-2.1v6.7c0,.6.1,1,.3,1.2s.5.4,1,.4.5,0,.9,0v.9c-.2.1-.7.2-1.2.2-.8,0-1.3-.2-1.7-.7s-.5-1.1-.5-2v-6.7h-1.9v-.9h1.9v-2.6h1.1Z"/>
      <path class="cls-13" d="M158.3,84.1c-.7,1-1.8,1.5-3.3,1.5s-1.9-.3-2.5-.9c-.6-.6-.9-1.5-.9-2.8v-6.5h1.1v6.4c0,1.9.8,2.9,2.4,2.9s2.7-.7,3.1-2v-7.3h1.1v10h-1.1v-1.3Z"/>
      <path class="cls-13" d="M164.9,72.8v2.6h2.1v.9h-2.1v6.7c0,.6.1,1,.3,1.2s.5.4,1,.4.5,0,.9,0v.9c-.2.1-.7.2-1.2.2-.8,0-1.3-.2-1.7-.7s-.5-1.1-.5-2v-6.7h-1.9v-.9h1.9v-2.6h1.1Z"/>
      <path class="cls-13" d="M173.5,85.6c-.9,0-1.7-.2-2.4-.6s-1.3-1-1.6-1.8c-.4-.8-.6-1.6-.6-2.5v-.4c0-1,.2-1.8.6-2.6s.9-1.4,1.6-1.8c.7-.4,1.4-.7,2.2-.7,1.2,0,2.2.4,3,1.2s1.1,2,1.1,3.4v.6h-7.3v.2c0,1.1.3,2.1,1,2.8.7.8,1.5,1.1,2.5,1.1s1.1-.1,1.6-.3c.5-.2.9-.6,1.3-1l.7.5c-.8,1.2-2,1.8-3.6,1.8ZM173.3,76.1c-.9,0-1.6.3-2.2.9-.6.6-.9,1.4-1.1,2.5h6.1c0-1.1-.3-1.9-.8-2.5-.5-.6-1.2-.9-2.1-.9Z"/>
      <path class="cls-13" d="M185.4,80.2c0-1,.2-1.8.6-2.6s.9-1.4,1.6-1.8c.7-.4,1.5-.6,2.4-.6,1.4,0,2.5.5,3.3,1.4.8.9,1.3,2.2,1.3,3.7v.2c0,1-.2,1.8-.6,2.6s-.9,1.4-1.6,1.8c-.7.4-1.5.6-2.4.6-1.4,0-2.5-.5-3.3-1.4-.8-.9-1.3-2.2-1.3-3.7v-.2ZM186.5,80.5c0,1.2.3,2.2,1,3,.6.8,1.5,1.2,2.5,1.2s1.8-.4,2.5-1.2c.6-.8,1-1.8,1-3v-.2c0-.8-.1-1.5-.4-2.1s-.7-1.1-1.2-1.5c-.5-.3-1.1-.5-1.8-.5-1,0-1.8.4-2.5,1.2-.6.8-1,1.8-1,3v.2Z"/>
      <path class="cls-13" d="M198,85.4v-9.1h-1.7v-.9h1.7v-1.2c0-1,.3-1.8.8-2.4s1.3-.8,2.2-.8.8,0,1.2.2v.9c-.4,0-.7-.1-1.1-.1-.6,0-1.1.2-1.5.6-.3.4-.5.9-.5,1.6v1.2h2.4v.9h-2.4v9.1h-1.1Z"/>
      <path class="cls-13" d="M219.5,81.2c-.2,1.4-.7,2.5-1.6,3.3-.9.8-2.1,1.1-3.5,1.1s-1.9-.2-2.7-.8c-.8-.5-1.4-1.2-1.8-2.1-.4-.9-.6-2-.7-3.1v-1.8c0-1.2.2-2.3.6-3.2.4-.9,1-1.6,1.9-2.1.8-.5,1.7-.8,2.8-.8s2.6.4,3.5,1.2,1.4,1.9,1.5,3.2h-1.2c-.3-2.3-1.6-3.4-3.8-3.4s-2.2.5-3,1.4c-.7.9-1.1,2.2-1.1,3.8v1.7c0,1.6.4,2.8,1.1,3.7.7.9,1.7,1.4,2.9,1.4s2.1-.3,2.8-.9c.6-.6,1-1.4,1.1-2.6h1.2Z"/>
      <path class="cls-13" d="M224,85.4h-1.1v-14.2h1.1v14.2Z"/>
      <path class="cls-13" d="M227.4,72.4c0-.2,0-.4.2-.5.1-.1.3-.2.6-.2s.4,0,.6.2c.1.1.2.3.2.5s0,.4-.2.5c-.1.1-.3.2-.6.2s-.4,0-.6-.2c-.1-.1-.2-.3-.2-.5ZM228.8,85.4h-1.1v-10h1.1v10Z"/>
      <path class="cls-13" d="M233.5,75.3v1.7c.4-.6.9-1.1,1.5-1.4.6-.3,1.2-.5,1.9-.5,1.1,0,1.9.3,2.5.9s.8,1.5.8,2.7v6.6h-1.1v-6.6c0-.9-.2-1.6-.6-2-.4-.4-1-.7-1.8-.7s-1.3.2-1.9.6c-.5.4-.9,1-1.2,1.7v6.9h-1.1v-10h1.1Z"/>
      <path class="cls-13" d="M243.5,72.4c0-.2,0-.4.2-.5.1-.1.3-.2.6-.2s.4,0,.6.2c.1.1.2.3.2.5s0,.4-.2.5c-.1.1-.3.2-.6.2s-.4,0-.6-.2c-.1-.1-.2-.3-.2-.5ZM244.8,85.4h-1.1v-10h1.1v10Z"/>
      <path class="cls-13" d="M252.3,84.6c.8,0,1.4-.2,2-.7.5-.4.8-1,.9-1.7h1.1c0,.6-.2,1.2-.6,1.7s-.8.9-1.4,1.2c-.6.3-1.2.4-1.9.4-1.3,0-2.4-.5-3.2-1.4-.8-.9-1.2-2.1-1.2-3.7v-.3c0-1,.2-1.9.5-2.6.4-.8.9-1.3,1.5-1.8.7-.4,1.4-.6,2.3-.6s2,.3,2.8,1,1.1,1.5,1.2,2.6h-1.1c0-.8-.3-1.4-.9-1.9-.5-.5-1.2-.7-2-.7s-1.8.4-2.4,1.1c-.6.7-.8,1.7-.8,3v.3c0,1.3.3,2.3.8,3,.6.7,1.4,1.1,2.4,1.1Z"/>
      <path class="cls-13" d="M265.7,85.4c-.1-.3-.2-.8-.2-1.4-.4.5-.9.9-1.5,1.2-.6.3-1.3.4-2,.4-1,0-1.8-.3-2.4-.8-.6-.5-.9-1.2-.9-2s.4-1.8,1.2-2.3c.8-.6,2-.9,3.5-.9h2.1v-1.1c0-.7-.2-1.3-.7-1.7-.5-.4-1.1-.6-2-.6s-1.4.2-2,.6c-.5.4-.8.9-.8,1.4h-1.1c0-.8.4-1.5,1.1-2.1.8-.6,1.7-.9,2.8-.9s2,.3,2.7.8,1,1.3,1,2.3v4.8c0,1,.1,1.7.3,2.2h0c0,.1-1.2.1-1.2.1ZM262.2,84.6c.8,0,1.4-.2,2-.5s1-.8,1.3-1.4v-2.2h-2c-1.1,0-2,.2-2.7.6-.6.4-1,.9-1,1.6s.2,1,.6,1.4,1,.6,1.7.6Z"/>
      <path class="cls-13" d="M271.4,85.4h-1.1v-14.2h1.1v14.2Z"/>
      <path class="cls-13" d="M107.9,93.4l5,11.9,5.1-11.9h1.5v13.5h-1.2v-11.9c0,0-5,11.9-5,11.9h-.9l-5.1-11.9v5.9c0,0,0,5.9,0,5.9h-1.2v-13.5h1.5Z"/>
      <path class="cls-13" d="M122.7,101.7c0-1,.2-1.8.6-2.6s.9-1.4,1.6-1.8c.7-.4,1.5-.6,2.3-.6,1.3,0,2.4.5,3.3,1.4.8.9,1.3,2.2,1.3,3.7v.2c0,1-.2,1.8-.6,2.6s-.9,1.4-1.6,1.8c-.7.4-1.5.6-2.4.6-1.3,0-2.4-.5-3.3-1.4-.8-.9-1.3-2.2-1.3-3.7v-.2ZM123.8,102c0,1.2.3,2.2.9,3,.6.8,1.5,1.2,2.5,1.2s1.8-.4,2.5-1.2c.6-.8.9-1.8.9-3v-.2c0-.8-.1-1.5-.4-2.1s-.7-1.1-1.2-1.5-1.1-.5-1.8-.5c-1,0-1.8.4-2.4,1.2-.6.8-.9,1.8-.9,3v.2Z"/>
      <path class="cls-13" d="M135.9,106.9h-1.1v-14.2h1.1v14.2Z"/>
      <path class="cls-13" d="M143.4,107.1c-.9,0-1.6-.2-2.3-.6s-1.2-1-1.6-1.8c-.4-.8-.6-1.6-.6-2.5v-.4c0-1,.2-1.8.6-2.6s.9-1.4,1.6-1.8c.7-.4,1.4-.7,2.2-.7,1.2,0,2.2.4,2.9,1.2.7.8,1.1,2,1.1,3.4v.6h-7.2v.2c0,1.1.3,2.1,1,2.8.7.8,1.5,1.1,2.5,1.1s1.1-.1,1.6-.3c.5-.2.9-.6,1.3-1l.7.5c-.8,1.2-2,1.8-3.6,1.8ZM143.2,97.6c-.8,0-1.6.3-2.1.9-.6.6-.9,1.4-1.1,2.5h6.1c0-1.1-.3-1.9-.8-2.5s-1.2-.9-2.1-.9Z"/>
      <path class="cls-13" d="M153.8,106.1c.8,0,1.4-.2,2-.7.5-.4.8-1,.9-1.7h1.1c0,.6-.2,1.2-.6,1.7-.4.5-.8.9-1.4,1.2-.6.3-1.2.4-1.9.4-1.3,0-2.4-.5-3.2-1.4-.8-.9-1.2-2.1-1.2-3.7v-.3c0-1,.2-1.9.5-2.6.3-.8.9-1.3,1.5-1.8.7-.4,1.4-.6,2.3-.6s2,.3,2.8,1c.7.7,1.1,1.5,1.2,2.6h-1.1c0-.8-.3-1.4-.9-1.9s-1.2-.7-2-.7-1.8.4-2.4,1.1c-.6.7-.8,1.7-.8,3v.3c0,1.3.3,2.3.8,3,.6.7,1.3,1.1,2.4,1.1Z"/>
      <path class="cls-13" d="M167,105.6c-.7,1-1.8,1.5-3.2,1.5s-1.9-.3-2.5-.9c-.6-.6-.8-1.5-.9-2.8v-6.5h1.1v6.4c0,1.9.8,2.9,2.3,2.9s2.7-.7,3.1-2v-7.3h1.1v10h-1.1v-1.3Z"/>
      <path class="cls-13" d="M172.7,106.9h-1.1v-14.2h1.1v14.2Z"/>
      <path class="cls-13" d="M182.6,106.9c-.1-.3-.2-.8-.2-1.4-.4.5-.9.9-1.5,1.2-.6.3-1.3.4-1.9.4-1,0-1.8-.3-2.4-.8-.6-.5-.9-1.2-.9-2s.4-1.8,1.2-2.3c.8-.6,2-.9,3.4-.9h2v-1.1c0-.7-.2-1.3-.7-1.7-.4-.4-1.1-.6-2-.6s-1.4.2-1.9.6c-.5.4-.8.9-.8,1.4h-1.1c0-.8.4-1.5,1.1-2.1.8-.6,1.7-.9,2.8-.9s2,.3,2.7.8c.7.6,1,1.3,1,2.3v4.8c0,1,.1,1.7.3,2.2h0c0,.1-1.2.1-1.2.1ZM179.1,106.1c.8,0,1.4-.2,2-.5.6-.4,1-.8,1.3-1.4v-2.2h-2c-1.1,0-2,.2-2.6.6s-.9.9-.9,1.6.2,1,.6,1.4c.4.4,1,.6,1.6.6Z"/>
      <path class="cls-13" d="M191.7,97.8c-.2,0-.5,0-.8,0-.7,0-1.3.2-1.8.6-.5.4-.8.9-1,1.7v6.9h-1.1v-10h1.1v1.6c.6-1.2,1.6-1.8,2.9-1.8s.6,0,.7.1v1Z"/>
      <path class="cls-13" d="M199.4,106.9v-13.5h4c1.5,0,2.6.3,3.3.9.8.6,1.1,1.5,1.1,2.6s-.2,1.3-.6,1.8c-.4.5-.9.9-1.6,1.1.8.2,1.4.6,1.9,1.2s.7,1.3.7,2.1c0,1.2-.4,2.1-1.2,2.8s-1.9,1-3.2,1h-4.6ZM200.6,99.4h3.1c1,0,1.7-.2,2.2-.7.5-.4.8-1.1.8-1.9s-.3-1.5-.8-1.9-1.4-.6-2.5-.6h-2.9v5.1ZM200.6,100.4v5.5h3.5c1,0,1.8-.2,2.3-.7.6-.5.9-1.2.9-2.1s-.3-1.5-.8-2-1.3-.7-2.3-.7h-3.6Z"/>
      <path class="cls-13" d="M211.4,93.9c0-.2,0-.4.2-.5.1-.1.3-.2.6-.2s.4,0,.6.2c.1.1.2.3.2.5s0,.4-.2.5c-.1.1-.3.2-.6.2s-.4,0-.6-.2c-.1-.1-.2-.3-.2-.5ZM212.7,106.9h-1.1v-10h1.1v10Z"/>
      <path class="cls-13" d="M215.6,101.7c0-1,.2-1.8.6-2.6s.9-1.4,1.6-1.8c.7-.4,1.5-.6,2.3-.6,1.3,0,2.4.5,3.3,1.4.8.9,1.3,2.2,1.3,3.7v.2c0,1-.2,1.8-.6,2.6s-.9,1.4-1.6,1.8c-.7.4-1.5.6-2.4.6-1.3,0-2.4-.5-3.3-1.4-.8-.9-1.3-2.2-1.3-3.7v-.2ZM216.7,102c0,1.2.3,2.2.9,3,.6.8,1.5,1.2,2.5,1.2s1.8-.4,2.5-1.2c.6-.8.9-1.8.9-3v-.2c0-.8-.1-1.5-.4-2.1s-.7-1.1-1.2-1.5-1.1-.5-1.8-.5c-1,0-1.8.4-2.4,1.2-.6.8-.9,1.8-.9,3v.2Z"/>
      <path class="cls-13" d="M228.8,106.9h-1.1v-14.2h1.1v14.2Z"/>
      <path class="cls-13" d="M231.7,101.7c0-1,.2-1.8.6-2.6s.9-1.4,1.6-1.8c.7-.4,1.5-.6,2.3-.6,1.3,0,2.4.5,3.3,1.4.8.9,1.3,2.2,1.3,3.7v.2c0,1-.2,1.8-.6,2.6s-.9,1.4-1.6,1.8c-.7.4-1.5.6-2.4.6-1.3,0-2.4-.5-3.3-1.4-.8-.9-1.3-2.2-1.3-3.7v-.2ZM232.9,102c0,1.2.3,2.2.9,3,.6.8,1.5,1.2,2.5,1.2s1.8-.4,2.5-1.2c.6-.8.9-1.8.9-3v-.2c0-.8-.1-1.5-.4-2.1s-.7-1.1-1.2-1.5-1.1-.5-1.8-.5c-1,0-1.8.4-2.4,1.2-.6.8-.9,1.8-.9,3v.2Z"/>
      <path class="cls-13" d="M243.3,101.8c0-1.6.4-2.8,1.1-3.7.7-.9,1.7-1.4,2.9-1.4s2.4.5,3.1,1.6v-1.4h1.1v9.8c0,1.3-.4,2.3-1.1,3.1-.7.8-1.7,1.1-3,1.1s-1.4-.2-2-.5c-.6-.3-1.1-.7-1.5-1.2l.6-.7c.8,1,1.7,1.4,2.8,1.4s1.7-.3,2.2-.8c.5-.5.8-1.3.8-2.3v-1.3c-.7,1-1.8,1.5-3.1,1.5s-2.1-.5-2.8-1.4-1.1-2.2-1.1-3.8h0ZM244.4,102c0,1.3.3,2.3.8,3s1.2,1.1,2.2,1.1c1.4,0,2.4-.6,2.9-1.8v-4.7c-.3-.6-.6-1.1-1.1-1.5s-1.1-.5-1.8-.5-1.7.4-2.2,1.1c-.5.7-.8,1.8-.8,3.2Z"/>
      <path class="cls-13" d="M258.2,105.3l3-8.4h1.2l-4.3,11.7-.2.5c-.6,1.2-1.4,1.8-2.6,1.8s-.6,0-.9-.1v-.9s.6,0,.6,0c.5,0,1-.1,1.3-.4.3-.3.6-.7.9-1.4l.5-1.4-3.8-10h1.2l3.1,8.4Z"/>
    </g>
  </g>
  <g id="Ebene_2" data-name="Ebene 2">
    <g id="Ebene_1-2" data-name="Ebene 1-2">
      <path class="cls-6" d="M34.4,78l-4.4,1.5-2.6-9.6,3.2-1.9,3.9,10Z"/>
      <path class="cls-10" d="M43.6,73.9l-4.3,1.5-4.8-9.8,3.2-2,5.8,10.2Z"/>
      <path class="cls-3" d="M52.8,70.2l-4.3,1.6-7.2-10.3,3.2-2,8.3,10.7Z"/>
      <path class="cls-2" d="M26.1,91.9l-5.8,1v-6.7c0,0,4.9-1.3,4.9-1.3l.9,7.1Z"/>
      <path class="cls-12" d="M39.1,90.1l-5.9,1-2.6-9.5,4.6-1.4,3.9,10Z"/>
      <path class="cls-2" d="M50.2,84.9l-5.5,1.1-4.4-8.8,4.5-1.5,5.5,9.1Z"/>
      <path class="cls-11" d="M62.9,83.2l-5.6,1.1-7.3-10.4,4.5-1.5,8.3,10.8Z"/>
      <path class="cls-8" d="M27.2,100.5l-7,.6v-6.7l6-.9,1,7.1Z"/>
      <path class="cls-1" d="M43.7,102l-7.4.5-2.6-9.5,6.1-.8,3.8,9.9Z"/>
      <path class="cls-6" d="M56.8,96l-6.8.7-4.5-8.8,5.8-1,5.5,9.1Z"/>
      <path class="cls-8" d="M73,96.1l-6.9.6-7.2-10.3,5.8-1,8.3,10.7Z"/>
      <path class="cls-7" d="M28.3,109h-8.2c0,.1,0-6.6,0-6.6l7.2-.5.9,7Z"/>
      <path class="cls-9" d="M48.4,114.1h-8.8c0,0-2.7-9.6-2.7-9.6l7.6-.3,3.9,10Z"/>
      <path class="cls-12" d="M63.4,107l-8.1.2-4.4-8.8,7-.6,5.5,9.1Z"/>
      <path class="cls-4" d="M83.1,109.1h-8.3c0,.1-7.2-10.2-7.2-10.2l7.2-.5,8.3,10.7Z"/>
      <path class="cls-5" d="M25,83.4l-4.7,1.4v-10.5c.1,0,3.3-1.9,3.3-1.9l1.4,11Z"/>
      <path class="cls-7" d="M67,49.5l4.4-1.5,2.7,9.6-3.2,1.9-3.9-10Z"/>
      <path class="cls-4" d="M57.9,53.7l4.3-1.6,4.8,9.8-3.2,2-5.9-10.2Z"/>
      <path class="cls-12" d="M48.6,57.4l4.3-1.6,7.2,10.3-3.2,2-8.3-10.7Z"/>
      <path class="cls-3" d="M75.4,35.6l5.8-1v6.7c0,0-4.9,1.3-4.9,1.3l-.9-7.1Z"/>
      <path class="cls-9" d="M62.4,37.5l5.9-1,2.7,9.5-4.6,1.4-3.9-10Z"/>
      <path class="cls-8" d="M51.3,42.6l5.5-1.1,4.4,8.8-4.5,1.5-5.5-9.1Z"/>
      <path class="cls-9" d="M38.6,44.4l5.6-1.1,7.2,10.4-4.5,1.5-8.4-10.8Z"/>
      <path class="cls-8" d="M74.3,27.1l7-.6v6.7c0,0-6.1.9-6.1.9l-.9-7.1Z"/>
      <path class="cls-1" d="M57.8,25.5l7.4-.5,2.7,9.5-6.1.9-3.9-10Z"/>
      <path class="cls-7" d="M44.7,31.6l6.8-.7,4.5,8.8-5.8,1-5.5-9.1Z"/>
      <path class="cls-6" d="M28.5,31.4l7-.5,7.2,10.3-5.8,1-8.4-10.8Z"/>
      <path class="cls-11" d="M73.2,18.5h8.2c0-.1,0,6.6,0,6.6l-7.2.5-1-7.1Z"/>
      <path class="cls-12" d="M53.1,13.5h8.8c0,0,2.7,9.6,2.7,9.6l-7.6.3-3.9-10Z"/>
      <path class="cls-2" d="M38.1,20.6l8.1-.2,4.4,8.8-7,.6-5.5-9.1Z"/>
      <path class="cls-10" d="M18.4,18.5h8.3c0-.1,7.2,10.2,7.2,10.2l-7.2.5-8.3-10.7Z"/>
      <path class="cls-12" d="M76.4,44.2l4.7-1.4v10.5c-.1,0-3.3,1.9-3.3,1.9l-1.4-11Z"/>
    </g>
  </g>
</svg>